<!-- icon666.com - MILLIONS vector ICONS FREE --><svg id="Layer_1" enable-background="new 0 0 100 100" viewBox="0 0 100 100" xmlns="http://www.w3.org/2000/svg"><g><path d="m72.32 29h-29.64c-4.24 0-7.68 3.44-7.68 7.68v38.65c0 4.23 3.44 7.68 7.68 7.68h29.65c4.23 0 7.68-3.44 7.68-7.68v-38.65c-.01-4.24-3.45-7.68-7.69-7.68zm3.68 46.32c0 2.03-1.65 3.68-3.68 3.68h-29.64c-2.03 0-3.68-1.65-3.68-3.68v-38.64c0-2.03 1.65-3.68 3.68-3.68h29.65c2.03 0 3.68 1.65 3.68 3.68v38.64z"></path><path d="m28.68 67c-2.03 0-3.68-1.65-3.68-3.68v-38.64c0-2.03 1.65-3.68 3.68-3.68h29.65c2.03 0 3.68 1.65 3.68 3.68 0 1.1.9 2 2 2s2-.9 2-2c0-4.23-3.44-7.68-7.68-7.68h-29.65c-4.24 0-7.68 3.44-7.68 7.68v38.65c0 4.23 3.44 7.68 7.68 7.68 1.1 0 2-.9 2-2s-.9-2.01-2-2.01z"></path></g></svg>