<!-- icon666.com - MILLIONS vector ICONS FREE --><svg version="1.1" id="Capa_1" xmlns="http://www.w3.org/2000/svg" xmlns:xlink="http://www.w3.org/1999/xlink" x="0px" y="0px" viewBox="0 0 457.843 457.843" style="enable-background:new 0 0 457.843 457.843;" xml:space="preserve"><path d="M454.913,2.929c-2.525-2.525-6.205-3.514-9.659-2.588l-69.811,18.706c-5.335,1.429-8.501,6.913-7.071,12.248 c1.43,5.334,6.914,8.501,12.247,7.071l33.762-9.046l-71.028,71.028c-15.874-14.067-36.073-21.769-57.465-21.769 c-19.991,0-38.949,6.712-54.302,19.073c-34.047-27.338-84.09-25.224-115.662,6.347c-16.393,16.393-25.42,38.187-25.42,61.369 c0,23.182,9.027,44.976,25.42,61.369l50.52,50.52l-19.08,19.081l-67.221,18.012c-1.696,0.454-3.242,1.347-4.483,2.588L2.929,389.667 c-3.2,3.201-3.852,8.152-1.589,12.071c2.263,3.92,6.88,5.83,11.248,4.659l53.08-14.223l-14.223,53.08 c-1.172,4.372,0.739,8.985,4.659,11.248c1.561,0.901,3.284,1.34,4.997,1.34c2.587,0,5.148-1.003,7.074-2.929l72.731-72.732 c1.241-1.242,2.134-2.788,2.588-4.483l18.013-67.222l19.08-19.08l43.933,43.933c1.953,1.952,4.512,2.929,7.071,2.929 s5.118-0.977,7.071-2.929l108.596-108.596c30.304-30.305,33.447-77.619,9.471-111.479l71.793-71.793l-9.046,33.76 c-1.43,5.335,1.736,10.818,7.071,12.248c0.867,0.232,1.737,0.343,2.594,0.343c4.415,0,8.456-2.947,9.653-7.414l18.706-69.81 C458.426,9.138,457.44,5.456,454.913,2.929z M87.908,332.972l31.172-8.353l-44.448,44.448l-31.172,8.353L87.908,332.972z M124.87,369.934l-44.447,44.448l8.352-31.173l44.448-44.448L124.87,369.934z M333.116,212.592L231.592,314.117l-36.862-36.862 l17.924-17.924l8.83,8.83c1.953,1.952,4.512,2.929,7.071,2.929s5.118-0.977,7.071-2.929c3.905-3.905,3.905-10.237,0-14.143 l-31.802-31.802c-3.906-3.904-10.236-3.904-14.143,0c-3.905,3.905-3.905,10.237,0,14.143l8.829,8.829l-17.924,17.924l-50.52-50.52 c-12.615-12.615-19.563-29.387-19.563-47.226c0-17.84,6.947-34.612,19.563-47.227c13.021-13.021,30.123-19.531,47.227-19.531 s34.206,6.51,47.227,19.531c1.876,1.875,4.419,2.929,7.071,2.929s5.195-1.054,7.071-2.929 c12.614-12.614,29.387-19.562,47.227-19.562s34.612,6.947,47.227,19.562C359.158,144.18,359.158,186.552,333.116,212.592z" fill="#000000" style="fill: rgb(255, 255, 255);"></path></svg>